<mxfile host="app.diagrams.net" agent="Mozilla/5.0 (X11; Ubuntu; Linux x86_64; rv:137.0) Gecko/20100101 Firefox/137.0" version="26.2.13">
  <diagram name="PÃ¡gina-1" id="jJfkOIt7JTSYCnqUtkTH">
    <mxGraphModel dx="1094" dy="1247" grid="0" gridSize="10" guides="1" tooltips="1" connect="1" arrows="1" fold="1" page="0" pageScale="1" pageWidth="827" pageHeight="1169" math="0" shadow="0">
      <root>
        <mxCell id="0" />
        <mxCell id="1" parent="0" />
        <mxCell id="o7hp2itf6OAezB-xXgph-3" value="" style="edgeStyle=none;curved=1;rounded=0;orthogonalLoop=1;jettySize=auto;html=1;fontSize=12;startSize=8;endSize=8;labelBackgroundColor=none;strokeColor=#23445D;fontColor=default;" edge="1" parent="1" source="o7hp2itf6OAezB-xXgph-1" target="o7hp2itf6OAezB-xXgph-2">
          <mxGeometry relative="1" as="geometry" />
        </mxCell>
        <mxCell id="o7hp2itf6OAezB-xXgph-1" value="Inicio" style="ellipse;whiteSpace=wrap;html=1;labelBackgroundColor=none;fillColor=#182E3E;strokeColor=#FFFFFF;fontColor=#FFFFFF;" vertex="1" parent="1">
          <mxGeometry x="174" y="-95" width="120" height="80" as="geometry" />
        </mxCell>
        <mxCell id="o7hp2itf6OAezB-xXgph-5" value="" style="edgeStyle=none;curved=1;rounded=0;orthogonalLoop=1;jettySize=auto;html=1;fontSize=12;startSize=8;endSize=8;labelBackgroundColor=none;strokeColor=#23445D;fontColor=default;" edge="1" parent="1" source="o7hp2itf6OAezB-xXgph-2" target="o7hp2itf6OAezB-xXgph-4">
          <mxGeometry relative="1" as="geometry" />
        </mxCell>
        <mxCell id="o7hp2itf6OAezB-xXgph-2" value="Ingrese edad " style="shape=parallelogram;perimeter=parallelogramPerimeter;whiteSpace=wrap;html=1;fixedSize=1;labelBackgroundColor=none;fillColor=#182E3E;strokeColor=#FFFFFF;fontColor=#FFFFFF;" vertex="1" parent="1">
          <mxGeometry x="174" y="39" width="120" height="60" as="geometry" />
        </mxCell>
        <mxCell id="o7hp2itf6OAezB-xXgph-7" value="noo" style="edgeStyle=none;curved=1;rounded=0;orthogonalLoop=1;jettySize=auto;html=1;fontSize=12;startSize=8;endSize=8;labelBackgroundColor=none;strokeColor=#23445D;fontColor=default;" edge="1" parent="1" source="o7hp2itf6OAezB-xXgph-4" target="o7hp2itf6OAezB-xXgph-6">
          <mxGeometry relative="1" as="geometry" />
        </mxCell>
        <mxCell id="o7hp2itf6OAezB-xXgph-9" value="si" style="edgeStyle=none;curved=1;rounded=0;orthogonalLoop=1;jettySize=auto;html=1;fontSize=12;startSize=8;endSize=8;labelBackgroundColor=none;strokeColor=#23445D;fontColor=default;" edge="1" parent="1" source="o7hp2itf6OAezB-xXgph-4" target="o7hp2itf6OAezB-xXgph-8">
          <mxGeometry relative="1" as="geometry" />
        </mxCell>
        <mxCell id="o7hp2itf6OAezB-xXgph-10" value="si" style="edgeLabel;html=1;align=center;verticalAlign=middle;resizable=0;points=[];fontSize=12;labelBackgroundColor=none;fontColor=#FFFFFF;" vertex="1" connectable="0" parent="o7hp2itf6OAezB-xXgph-9">
          <mxGeometry x="-0.1323" y="-3" relative="1" as="geometry">
            <mxPoint as="offset" />
          </mxGeometry>
        </mxCell>
        <mxCell id="o7hp2itf6OAezB-xXgph-4" value="&lt;div&gt;&amp;nbsp;&amp;nbsp;&amp;nbsp; ed ad&amp;nbsp; mayor o igual a 18&lt;/div&gt;&lt;div&gt;&lt;br&gt;&lt;/div&gt;" style="rhombus;whiteSpace=wrap;html=1;labelBackgroundColor=none;fillColor=#182E3E;strokeColor=#FFFFFF;fontColor=#FFFFFF;" vertex="1" parent="1">
          <mxGeometry x="141.5" y="158" width="185" height="122" as="geometry" />
        </mxCell>
        <mxCell id="o7hp2itf6OAezB-xXgph-14" value="" style="edgeStyle=none;curved=1;rounded=0;orthogonalLoop=1;jettySize=auto;html=1;strokeColor=#23445D;fontSize=12;startSize=8;endSize=8;" edge="1" parent="1" source="o7hp2itf6OAezB-xXgph-6" target="o7hp2itf6OAezB-xXgph-13">
          <mxGeometry relative="1" as="geometry" />
        </mxCell>
        <mxCell id="o7hp2itf6OAezB-xXgph-6" value="Es Menor de edad" style="shape=parallelogram;perimeter=parallelogramPerimeter;whiteSpace=wrap;html=1;fixedSize=1;labelBackgroundColor=none;fillColor=#182E3E;strokeColor=#FFFFFF;fontColor=#FFFFFF;" vertex="1" parent="1">
          <mxGeometry x="-131" y="189" width="120" height="60" as="geometry" />
        </mxCell>
        <mxCell id="o7hp2itf6OAezB-xXgph-15" style="edgeStyle=none;curved=1;rounded=0;orthogonalLoop=1;jettySize=auto;html=1;entryX=1;entryY=0;entryDx=0;entryDy=0;strokeColor=#23445D;fontSize=12;startSize=8;endSize=8;" edge="1" parent="1" source="o7hp2itf6OAezB-xXgph-8" target="o7hp2itf6OAezB-xXgph-13">
          <mxGeometry relative="1" as="geometry" />
        </mxCell>
        <mxCell id="o7hp2itf6OAezB-xXgph-8" value="&lt;div&gt;Es Mayor de edad&lt;/div&gt;&lt;div&gt;!&lt;/div&gt;" style="shape=parallelogram;perimeter=parallelogramPerimeter;whiteSpace=wrap;html=1;fixedSize=1;labelBackgroundColor=none;fillColor=#182E3E;strokeColor=#FFFFFF;fontColor=#FFFFFF;" vertex="1" parent="1">
          <mxGeometry x="479" y="189" width="120" height="60" as="geometry" />
        </mxCell>
        <mxCell id="o7hp2itf6OAezB-xXgph-13" value="fin" style="ellipse;whiteSpace=wrap;html=1;fillColor=#182E3E;strokeColor=#FFFFFF;fontColor=#FFFFFF;labelBackgroundColor=none;" vertex="1" parent="1">
          <mxGeometry x="191" y="386" width="80" height="80" as="geometry" />
        </mxCell>
      </root>
    </mxGraphModel>
  </diagram>
</mxfile>
